<svg width="250" height="325" viewBox="0 0 250 325" fill="none" xmlns="http://www.w3.org/2000/svg">
<path d="M0 5C0 2.23858 2.23858 0 5 0H176.877C178.203 0 179.474 0.526276 180.412 1.46316L244.137 65.1412C247.891 68.8924 250 73.9817 250 79.2886V320C250 322.761 247.761 325 245 325H5C2.23857 325 0 322.761 0 320V5Z" fill="#F8F8F8"/>
<path d="M0.5 5C0.5 2.51472 2.51472 0.5 5 0.5H176.877C178.07 0.5 179.214 0.973648 180.058 1.81684L243.783 65.4949C247.444 69.1523 249.5 74.1144 249.5 79.2886V320C249.5 322.485 247.485 324.5 245 324.5H5C2.51471 324.5 0.5 322.485 0.5 320V5Z" stroke="black" stroke-opacity="0.2"/>
</svg>
