<svg width="25" height="21" viewBox="0 0 25 21" fill="none" xmlns="http://www.w3.org/2000/svg">
<path fill-rule="evenodd" clip-rule="evenodd" d="M20.5637 19.0885L20.5645 19.0865L20.5848 19.0357L24.0833 1.39683V1.33954C24.0833 0.900053 23.921 0.516383 23.5676 0.286248C23.2583 0.0848086 22.9027 0.0704628 22.6534 0.0893868C22.3897 0.109401 22.1411 0.175219 21.969 0.230006C21.8804 0.258192 21.8063 0.285351 21.7533 0.305892C21.7267 0.316201 21.7051 0.324949 21.6895 0.331467L21.6741 0.33795L2.1676 7.99004L2.16223 7.99197C2.1517 7.9958 2.13777 8.001 2.12094 8.00755C2.08739 8.02061 2.04173 8.03929 1.98809 8.06361C1.88276 8.11134 1.73723 8.18501 1.58965 8.28607C1.33898 8.45773 0.861685 8.86411 0.942281 9.50837C1.00904 10.042 1.37689 10.3809 1.62489 10.5564C1.75783 10.6505 1.88501 10.7183 1.97814 10.7626C2.02533 10.7851 2.06542 10.8023 2.09527 10.8145C2.11024 10.8206 2.12275 10.8254 2.13243 10.8291L2.14483 10.8337L2.15275 10.8367L5.56553 11.9856C5.55401 12.1997 5.57525 12.4181 5.63204 12.6335L7.34153 19.1183C7.54423 19.8872 8.23982 20.4228 9.03499 20.4222C9.74774 20.4217 10.3799 19.9905 10.6484 19.3472L13.3174 16.4934L17.9012 20.0077L17.9664 20.0361C18.3828 20.2179 18.7719 20.2754 19.1277 20.2268C19.4829 20.1783 19.7652 20.0293 19.9773 19.8597C20.1859 19.6927 20.329 19.5043 20.4189 19.3625C20.4646 19.2904 20.4986 19.227 20.5223 19.1794C20.5341 19.1554 20.5435 19.1352 20.5505 19.1194L20.5593 19.0991L20.5624 19.0916L20.5637 19.0885ZM7.32417 12.1874C7.28532 12.04 7.34631 11.8844 7.47498 11.8027L19.0507 4.45162C19.0507 4.45162 19.7315 4.03828 19.7072 4.45162C19.7072 4.45162 19.8287 4.52462 19.4639 4.86497C19.1178 5.18822 11.2136 12.8195 10.4138 13.5917C10.3676 13.6362 10.34 13.6874 10.3238 13.7494L9.03367 18.6722L7.32417 12.1874Z" fill="white"/>
</svg>
