<svg width="435.724" height="110.103" version="1.1" viewBox="0 0 435.724 110.103" xmlns="http://www.w3.org/2000/svg">
 <rect transform="scale(1,-1)" x="5" y="-105.103" width="425.724" height="100.103" fill="#fff"/>
 <g transform="translate(-38.1382 -200.949)" stroke-opacity="0" aria-label="ПРОФКОН">
  <path d="m73.5893 286.053v-41.8134h26.0587v41.8134h10.3787v-52.2667h-46.8907v52.2667z"/>
  <path d="m127.947 259.995v-15.7547h26.0587v15.7547zm0 26.0587v-15.6053h31.2854l5.152-5.22667v-26.1333l-5.152-5.30134h-41.7387v52.2667z"/>
  <path d="m181.557 275.6v-31.36h26.0587v31.36zm31.2854 10.4533 5.152-5.152v-41.8134l-5.152-5.30134h-36.5867l-5.15201 5.30134v41.8134l5.15201 5.152z"/>
  <path d="m229.867 233.787-5.152 5.30134v34.048l5.152 5.152h20.9067v7.76533h10.4533v-7.76533h20.832l5.22667-5.152v-34.048l-5.22667-5.30134h-20.832v-7.84h-10.4533v7.84zm5.30134 34.048v-23.5947h15.6053v23.5947zm26.0587 0v-23.5947h15.68v23.5947z"/>
  <path d="m304.459 286.053v-20.832h15.6053l10.4533 10.3787v10.4533h10.3787v-15.6053l-10.3787-10.4533 10.3787-10.4533v-15.7547h-10.3787v10.528l-10.4533 10.4533h-15.6053v-20.9814h-10.4533v52.2667z"/>
  <path d="m358.07 275.6v-31.36h26.0587v31.36zm31.2854 10.4533 5.152-5.152v-41.8134l-5.152-5.30134h-36.5867l-5.15201 5.30134v41.8134l5.15201 5.152z"/>
  <path d="m412.427 286.053v-20.832h26.0587v20.832h10.3787v-52.2667h-10.3787v20.9814h-26.0587v-20.9814h-10.4533v52.2667z"/>
 </g>
 <rect transform="scale(1,-1)" x="5" y="-105.103" width="425.724" height="100.103" fill="none" stroke="#000" stroke-width="10"/>
</svg>
